<svg xmlns="http://www.w3.org/2000/svg" width="64" height="64" viewBox="0 0 64 64" fill="none" stroke="black" stroke-width="2.5" stroke-linecap="round" stroke-linejoin="round"><path d="M24,16 A6,6 0 0,0 24,28 A6,6 0 0,0 24,40 A6,6 0 0,0 24,52" /><path d="M40,16 A6,6 0 0,1 40,28 A6,6 0 0,1 40,40 A6,6 0 0,1 40,52" /><line x1="16" y1="16" x2="24" y2="16" /><line x1="16" y1="52" x2="24" y2="52" /><line x1="40" y1="16" x2="48" y2="16" /><line x1="40" y1="52" x2="48" y2="52" /><line x1="30" y1="16" x2="30" y2="52" /><line x1="34" y1="16" x2="34" y2="52" /></svg>